<svg xmlns="http://www.w3.org/2000/svg" viewBox="0 0 268.06 385.39">
  <title>keg</title>
  <g id="keg">
    <path d="M313.5,180.5s104-66,226,0Z" transform="translate(-291.38 -151.17)" fill="#969696"/>
    <path d="M313.5,180.5s104,66,226,0Z" transform="translate(-291.38 -151.17)" fill="#969696"/>
    <path d="M313,180s-58,265,16,345c0,0,168,26,210,0,0,0,46,6,0-345C539,180,426,247,313,180Z" transform="translate(-291.38 -151.17)" fill="#683d12"/>
  </g>
  <g id="label">
    <g id="lines">
      <path d="M343.55,196.6a508.56,508.56,0,0,0-7.15,274.61,540.25,540.25,0,0,0,17.15,55.19c.67,1.79,3.57,1,2.9-.8-30-81.17-40.23-169.25-27-255a509.54,509.54,0,0,1,17-73.25c.57-1.85-2.32-2.64-2.9-.8Z" transform="translate(-291.38 -151.17)" fill="#050301"/>
      <path d="M379.14,205.6a505.11,505.11,0,0,0-7,271.52A538.61,538.61,0,0,0,389,531.4c.66,1.8,3.56,1,2.9-.8-29.34-79.82-39.39-166.3-26.71-250.55A503.62,503.62,0,0,1,382,206.4c.57-1.85-2.33-2.64-2.9-.8Z" transform="translate(-291.38 -151.17)" fill="#050301"/>
      <path d="M401.07,208.6a875.19,875.19,0,0,0-4,270.07q3.86,27.51,9.46,54.73c.39,1.89,3.29,1.09,2.9-.8a876.93,876.93,0,0,1-15-248.84q3.1-37.36,9.5-74.36c.33-1.89-2.56-2.7-2.89-.8Z" transform="translate(-291.38 -151.17)" fill="#050301"/>
      <path d="M499.28,197.4a541.56,541.56,0,0,1,6.57,281.47q-6.78,27.81-16.33,54.83c-.65,1.82,2.25,2.6,2.89.79,29.35-83.28,39.17-173,26.7-260.52a542.67,542.67,0,0,0-16.93-77.37c-.55-1.85-3.45-1.06-2.9.8Z" transform="translate(-291.38 -151.17)" fill="#050301"/>
      <path d="M464.52,206.4A522.7,522.7,0,0,1,471.06,480a552.19,552.19,0,0,1-16.13,53.69c-.65,1.82,2.25,2.6,2.89.79,28.71-80.72,38.42-167.73,26.35-252.67a524.48,524.48,0,0,0-16.75-76.16c-.56-1.84-3.45-1.06-2.9.8Z" transform="translate(-291.38 -151.17)" fill="#050301"/>
      <path d="M443.11,211.23a886.22,886.22,0,0,1,3.66,269.4q-3.69,26.61-9,53c-.38,1.89,2.51,2.69,2.89.8a895.34,895.34,0,0,0,14.44-252.63Q452,245.94,446,210.44c-.32-1.9-3.21-1.1-2.89.79Z" transform="translate(-291.38 -151.17)" fill="#050301"/>
    </g>
    <rect x="38.62" y="177.83" width="191" height="77" rx="23.41" ry="23.41" fill="#999490"/>
    <g>
      <path d="M400.09,345c2,0,4.12.12,5.77,1.36,2.35,1.76,3,5.88,3,8.65,0,4-.94,7.29-4.83,9.12,5.06,1.35,5.77,4.94,5.77,9.65,0,3.23-.53,6.7-3.24,8.82-1.88,1.47-3.88,1.65-6.18,1.65h-6V345ZM400,362.4c4.77,0,5.18-3.29,5.18-7.18,0-3.7-.18-7-4.82-7H398V362.4Zm0,18.77c5,0,6.06-3.06,6.06-7.47,0-3.94-1.17-8.06-5.88-8.06H398v15.53Z" transform="translate(-291.38 -151.17)" fill="#fcfcfc"/>
      <path d="M415,384.29V345h12.23v3.36h-8.59v13.83H427v3.35h-8.36v15.36h8.59v3.35Z" transform="translate(-291.38 -151.17)" fill="#fcfcfc"/>
      <path d="M432.75,384.29V345H445v3.36h-8.6v13.83h8.36v3.35h-8.36v15.36H445v3.35Z" transform="translate(-291.38 -151.17)" fill="#fcfcfc"/>
      <path d="M463.81,384.29l-9.12-19.18v19.18h-4V345h4.95c2.29,0,4.7,0,6.76,1.12,3.53,1.89,4.24,5.77,4.24,9.42,0,5.41-1.83,9.41-7.77,9.88L468,384.29Zm-6.7-22.06c4.7,0,5.47-2.77,5.47-6.89,0-4.53-.94-6.94-5.94-6.94h-1.95v13.83Z" transform="translate(-291.38 -151.17)" fill="#fcfcfc"/>
    </g>
  </g>
</svg>
